<svg width="67" height="24" viewBox="0 0 67 24" fill="none" xmlns="http://www.w3.org/2000/svg">
<g clip-path="url(#clip0_144643_2557)">
<path d="M31 18H33V16H31V18ZM32 2C26.48 2 22 6.48 22 12C22 17.52 26.48 22 32 22C37.52 22 42 17.52 42 12C42 6.48 37.52 2 32 2ZM32 20C27.59 20 24 16.41 24 12C24 7.59 27.59 4 32 4C36.41 4 40 7.59 40 12C40 16.41 36.41 20 32 20ZM32 6C29.79 6 28 7.79 28 10H30C30 8.9 30.9 8 32 8C33.1 8 34 8.9 34 10C34 12 31 11.75 31 15H33C33 12.75 36 12.5 36 10C36 7.79 34.21 6 32 6Z" fill="#285D9A"/>
</g>
<defs>
<clipPath id="clip0_144643_2557">
<rect width="24" height="24" fill="white" transform="translate(20)"/>
</clipPath>
</defs>
</svg>
