<svg width="67" height="24" viewBox="0 0 67 24" fill="none" xmlns="http://www.w3.org/2000/svg">
<path d="M23.25 4.125H28.5C29.4283 4.125 30.3185 4.49375 30.9749 5.15013C31.6313 5.8065 32 6.69674 32 7.625V19.875C32 19.1788 31.7234 18.5111 31.2312 18.0188C30.7389 17.5266 30.0712 17.25 29.375 17.25H23.25V4.125Z" stroke="#285D9A" stroke-width="2" stroke-linecap="round" stroke-linejoin="round"/>
<path d="M40.75 4.125H35.5C34.5717 4.125 33.6815 4.49375 33.0251 5.15013C32.3687 5.8065 32 6.69674 32 7.625V19.875C32 19.1788 32.2766 18.5111 32.7688 18.0188C33.2611 17.5266 33.9288 17.25 34.625 17.25H40.75V4.125Z" stroke="#285D9A" stroke-width="2" stroke-linecap="round" stroke-linejoin="round"/>
</svg>
