<svg width="67" height="24" viewBox="0 0 67 24" fill="none" xmlns="http://www.w3.org/2000/svg">
<g clip-path="url(#clip0_144643_2554)">
<path d="M41 4H23C21.9 4 21 4.9 21 6V19C21 20.1 21.9 21 23 21H41C42.1 21 43 20.1 43 19V6C43 4.9 42.1 4 41 4ZM23 19V6H31V19H23ZM41 19H33V6H41V19ZM34 9.5H40V11H34V9.5ZM34 12H40V13.5H34V12ZM34 14.5H40V16H34V14.5Z" fill="#285D9A"/>
</g>
<defs>
<clipPath id="clip0_144643_2554">
<rect width="24" height="24" fill="white" transform="translate(20)"/>
</clipPath>
</defs>
</svg>
